<?xml version="1.0" encoding="utf-8"?>
<!-- Generator: Adobe Illustrator 16.0.0, SVG Export Plug-In . SVG Version: 6.00 Build 0)  -->
<!DOCTYPE svg PUBLIC "-//W3C//DTD SVG 1.1 Basic//EN" "http://www.w3.org/Graphics/SVG/1.1/DTD/svg11-basic.dtd">
<svg version="1.1" baseProfile="basic" id="Layer_1"
	 xmlns="http://www.w3.org/2000/svg" xmlns:xlink="http://www.w3.org/1999/xlink" x="0px" y="0px" width="25.867px"
	 height="25.866px" viewBox="0 0 25.867 25.866" xml:space="preserve">
<path fill="#FFFFFF" d="M17.957,25.866c-0.625,0-1.133-0.509-1.133-1.135v-2.987h-0.959v2.987c0,0.626-0.508,1.135-1.133,1.135
	c-0.626,0-1.137-0.509-1.137-1.135v-2.987H12.64v2.987c0,0.626-0.509,1.135-1.134,1.135c-0.626,0-1.135-0.509-1.135-1.135v-2.987
	H9.413v2.987c0,0.626-0.509,1.135-1.134,1.135c-0.626,0-1.137-0.509-1.137-1.135v-2.987H5.73c-0.886,0-1.607-0.723-1.607-1.608
	v-1.229H1.135C0.509,18.906,0,18.399,0,17.773c0-0.627,0.509-1.136,1.135-1.136h2.988v-0.956H1.135C0.509,15.681,0,15.171,0,14.546
	c0-0.626,0.509-1.135,1.135-1.135h2.988v-0.957H1.135C0.509,12.455,0,11.945,0,11.32s0.509-1.135,1.135-1.135h2.988V9.228H1.135
	C0.509,9.228,0,8.719,0,8.094s0.509-1.135,1.135-1.135h2.988V5.73c0-0.887,0.721-1.608,1.607-1.608h1.412V1.134
	C7.143,0.509,7.653,0,8.279,0c0.625,0,1.134,0.509,1.134,1.134v2.988h0.957V1.134C10.37,0.509,10.879,0,11.505,0
	c0.625,0,1.134,0.509,1.134,1.134v2.988h0.956V1.134c0-0.625,0.51-1.134,1.137-1.134c0.625,0,1.133,0.509,1.133,1.134v2.988h0.959
	V1.134C16.824,0.509,17.332,0,17.957,0c0.626,0,1.134,0.509,1.134,1.134v2.988h1.046c0.886,0,1.608,0.722,1.608,1.608v1.229h2.986
	c0.627,0,1.136,0.509,1.136,1.135s-0.509,1.134-1.136,1.134h-2.986v0.957h2.986c0.627,0,1.136,0.509,1.136,1.135
	s-0.509,1.135-1.136,1.135h-2.986v0.957h2.986c0.627,0,1.136,0.509,1.136,1.135c0,0.625-0.509,1.135-1.136,1.135h-2.986v0.956h2.986
	c0.627,0,1.136,0.509,1.136,1.136c0,0.626-0.509,1.133-1.136,1.133h-2.986v1.229c0,0.886-0.723,1.608-1.608,1.608h-1.046v2.987
	C19.091,25.357,18.583,25.866,17.957,25.866z M20.613,11.316v-3.22 M20.613,14.542v-3.219 M20.613,17.768v-3.219 M20.613,8.091V5.73
	c0-0.263-0.215-0.477-0.477-0.477h-2.178V1.134l-0.005,4.119h-3.22V1.134l-0.008,4.119h-3.217V1.134l-0.006,4.119h-3.22V1.134
	L8.274,5.253H5.73c-0.262,0-0.476,0.214-0.476,0.477v2.36h-4.12l4.12,0.006v3.22h-4.12l4.12,0.007v3.219h-4.12l4.12,0.007v3.219
	h-4.12l4.12,0.007v2.36c0,0.262,0.214,0.477,0.476,0.477h2.543v4.119l0.008-4.119h3.22v4.119l0.006-4.119h3.217v4.119l0.008-4.119
	h3.22l0.003,4.688l0.002-4.688h2.178c0.262,0,0.477-0.215,0.477-0.477v-2.36"/>
</svg>
