<?xml version="1.0" encoding="utf-8"?>
<!-- Generator: Adobe Illustrator 16.0.0, SVG Export Plug-In . SVG Version: 6.00 Build 0)  -->
<!DOCTYPE svg PUBLIC "-//W3C//DTD SVG 1.1 Basic//EN" "http://www.w3.org/Graphics/SVG/1.1/DTD/svg11-basic.dtd">
<svg version="1.1" baseProfile="basic" id="Layer_1"
	 xmlns="http://www.w3.org/2000/svg" xmlns:xlink="http://www.w3.org/1999/xlink" x="0px" y="0px" width="29.841px"
	 height="29.84px" viewBox="0 0 29.841 29.84" xml:space="preserve">
<g>
	<path fill="#009688" d="M14.923,29.84C6.694,29.84,0,23.148,0,14.922C0,6.694,6.694,0,14.923,0c8.226,0,14.918,6.694,14.918,14.922
		C29.841,23.148,23.149,29.84,14.923,29.84z M14.923,1.809c-7.231,0-13.115,5.883-13.115,13.113c0,7.228,5.883,13.108,13.115,13.108
		c7.228,0,13.108-5.881,13.108-13.108C28.032,7.691,22.151,1.809,14.923,1.809z"/>
</g>
<g>
	<path fill="#009688" d="M16.195,22.565c0,0.381-0.257,0.637-0.639,0.637h-1.271c-0.381,0-0.638-0.256-0.638-0.637v-1.271
		c0-0.384,0.257-0.64,0.638-0.64h1.271c0.382,0,0.639,0.256,0.639,0.64V22.565z"/>
	<path fill="#009688" d="M17.914,16.893c-0.892,0.767-1.527,1.277-1.719,1.977c-0.062,0.32-0.318,0.511-0.639,0.511h-1.271
		c-0.381,0-0.7-0.318-0.638-0.7c0.257-1.849,1.59-2.868,2.675-3.758c1.147-0.894,1.785-1.465,1.785-2.551
		c0-1.782-1.404-3.186-3.184-3.186c-1.787,0-3.187,1.404-3.187,3.186v0.381c0.062,0.322-0.127,0.639-0.449,0.705l-1.209,0.38
		c-0.383,0.127-0.766-0.128-0.829-0.508c-0.064-0.321-0.064-0.638-0.064-0.958c0-3.186,2.551-5.734,5.738-5.734
		c3.184,0,5.732,2.548,5.732,5.734C20.656,14.729,19.125,15.939,17.914,16.893L17.914,16.893z"/>
	<path fill="#009688" d="M17.914,16.893"/>
</g>
</svg>
