<?xml version="1.0" encoding="utf-8"?>
<!-- Generator: Adobe Illustrator 16.0.0, SVG Export Plug-In . SVG Version: 6.00 Build 0)  -->
<!DOCTYPE svg PUBLIC "-//W3C//DTD SVG 1.1 Basic//EN" "http://www.w3.org/Graphics/SVG/1.1/DTD/svg11-basic.dtd">
<svg version="1.1" baseProfile="basic" id="Layer_1"
	 xmlns="http://www.w3.org/2000/svg" xmlns:xlink="http://www.w3.org/1999/xlink" x="0px" y="0px" width="34.723px"
	 height="34.723px" viewBox="0 0 34.723 34.723" xml:space="preserve">
<g>
	<circle fill="#F1F1F1" cx="17.361" cy="17.361" r="17.361"/>
	<g>
		<path fill="#929494" d="M17.367,29.998c-1.488,0-2.979-0.267-4.416-0.802c-3.161-1.178-5.674-3.516-7.077-6.585
			c-1.403-3.068-1.526-6.499-0.348-9.66c1.178-3.161,3.517-5.675,6.585-7.077c2.441-1.115,5.116-1.425,7.739-0.896
			c0.784,0.159,1.291,0.922,1.133,1.705c-0.158,0.784-0.922,1.291-1.706,1.133c-2.019-0.408-4.081-0.168-5.963,0.691
			c-2.365,1.082-4.167,3.019-5.075,5.455c-0.909,2.438-0.813,5.081,0.268,7.445c1.081,2.366,3.018,4.168,5.455,5.077
			c2.438,0.907,5.081,0.813,7.446-0.269c4.883-2.231,7.038-8.019,4.808-12.901c-0.332-0.728-0.013-1.586,0.714-1.919
			c0.729-0.332,1.587-0.013,1.919,0.716c2.895,6.334,0.098,13.842-6.237,16.737C20.938,29.614,19.155,29.998,17.367,29.998z"/>
		<g>
			<polygon fill="#929494" points="17.121,9.49 24.28,8.572 19.907,2.832 			"/>
		</g>
	</g>
</g>
</svg>
