<?xml version="1.0" encoding="utf-8"?>
<!-- Generator: Adobe Illustrator 16.0.0, SVG Export Plug-In . SVG Version: 6.00 Build 0)  -->
<!DOCTYPE svg PUBLIC "-//W3C//DTD SVG 1.1 Basic//EN" "http://www.w3.org/Graphics/SVG/1.1/DTD/svg11-basic.dtd">
<svg version="1.1" baseProfile="basic" id="Layer_1"
	 xmlns="http://www.w3.org/2000/svg" xmlns:xlink="http://www.w3.org/1999/xlink" x="0px" y="0px" width="28.508px"
	 height="28.508px" viewBox="0 0 28.508 28.508" xml:space="preserve">
<rect fill="none" width="28.508" height="28.508"/>
<g id="Settings_logo">
	<g>
		<path fill="#009587" d="M14.287,28.508c-0.55,0-1.101-0.032-1.635-0.095c-0.728-0.083-1.268-0.723-1.229-1.458
			c0.057-1.006-0.524-1.94-1.447-2.325c-0.844-0.356-2.053-0.079-2.666,0.601c-0.481,0.525-1.352,0.594-1.903,0.149
			c-0.828-0.667-1.584-1.431-2.246-2.272c-0.446-0.562-0.382-1.39,0.149-1.881c0.734-0.675,0.977-1.739,0.604-2.649
			c-0.36-0.878-1.221-1.468-2.14-1.468c0,0-0.001,0-0.002,0c-0.725,0-1.494-0.469-1.586-1.225c-0.12-1.094-0.118-2.18,0.007-3.234
			c0.089-0.726,0.66-1.229,1.389-1.229h0.001c1.097,0,2.026-0.566,2.393-1.443c0.387-0.922,0.146-1.995-0.6-2.672
			C2.833,6.812,2.769,5.978,3.227,5.407C3.9,4.567,4.674,3.803,5.523,3.137C6.072,2.704,6.937,2.775,7.408,3.29
			c0.614,0.675,1.812,0.951,2.652,0.608c0.909-0.373,1.498-1.293,1.464-2.286c-0.025-0.724,0.519-1.352,1.237-1.43
			c1.055-0.116,2.138-0.115,3.193,0.008c0.729,0.086,1.269,0.726,1.229,1.457c-0.06,1.006,0.522,1.941,1.444,2.33
			c0.842,0.349,2.056,0.076,2.666-0.601c0.478-0.527,1.35-0.596,1.901-0.154c0.825,0.661,1.584,1.426,2.251,2.271
			c0.446,0.569,0.379,1.396-0.151,1.885c-0.732,0.671-0.974,1.734-0.603,2.648c0.365,0.89,1.239,1.465,2.224,1.465
			c0.656,0,1.417,0.472,1.503,1.232c0.119,1.085,0.117,2.171-0.006,3.229c-0.084,0.701-0.67,1.229-1.365,1.229l0,0l-0.24-0.007
			c-0.934,0.001-1.815,0.584-2.179,1.451c-0.387,0.92-0.145,1.994,0.604,2.67c0.542,0.498,0.607,1.331,0.148,1.901
			c-0.678,0.841-1.452,1.605-2.299,2.271c-0.57,0.436-1.407,0.359-1.881-0.152c-0.619-0.68-1.812-0.952-2.655-0.609
			c-0.911,0.374-1.501,1.292-1.466,2.285c0.026,0.723-0.517,1.352-1.233,1.43C15.329,28.479,14.805,28.508,14.287,28.508z
			 M9.128,23.197c0.475,0,0.926,0.088,1.34,0.263c1.416,0.592,2.31,2.024,2.223,3.564c-0.003,0.064,0.044,0.121,0.106,0.129
			c0.948,0.11,1.935,0.114,2.912,0.007c0.062-0.007,0.106-0.061,0.104-0.123c-0.054-1.521,0.852-2.929,2.252-3.504
			c1.337-0.546,3.103-0.137,4.071,0.925c0.026,0.029,0.062,0.036,0.088,0.036c0.847-0.63,1.552-1.326,2.17-2.093
			c0.038-0.049,0.032-0.121-0.016-0.166c-1.144-1.035-1.514-2.685-0.918-4.1c0.558-1.333,1.909-2.229,3.361-2.229l0.182,0.005
			c0.081-0.011,0.144-0.045,0.15-0.106c0.112-0.963,0.113-1.953,0.005-2.941c-0.019-0.025-0.144-0.103-0.242-0.103
			c-1.501,0-2.835-0.886-3.398-2.254c-0.57-1.406-0.2-3.038,0.919-4.063c0.048-0.043,0.053-0.115,0.014-0.167
			c-0.607-0.767-1.297-1.463-2.049-2.064c-0.095-0.025-0.135-0.02-0.167,0.015c-0.96,1.068-2.761,1.479-4.096,0.92
			c-1.42-0.599-2.312-2.033-2.222-3.571c0.003-0.062-0.045-0.118-0.11-0.126c-0.954-0.111-1.942-0.112-2.907-0.006
			c-0.064,0.007-0.11,0.06-0.108,0.123c0.054,1.522-0.852,2.932-2.252,3.505C9.211,5.618,7.436,5.207,6.472,4.146
			c-0.028-0.033-0.068-0.037-0.09-0.037c-0.85,0.633-1.553,1.328-2.166,2.093C4.175,6.253,4.181,6.323,4.229,6.368
			c1.142,1.035,1.511,2.684,0.916,4.1c-0.564,1.351-1.953,2.223-3.537,2.223c-0.104,0.032-0.144,0.019-0.156,0.111
			c-0.112,0.957-0.114,1.946-0.006,2.937c0.017,0.017,0.147,0.103,0.263,0.103c0.001,0,0.001,0,0.002,0
			c1.491,0,2.822,0.906,3.377,2.255c0.573,1.401,0.204,3.033-0.918,4.063c-0.045,0.043-0.052,0.114-0.014,0.162
			c0.604,0.768,1.293,1.464,2.047,2.07c0.097,0.029,0.135,0.021,0.168-0.016C7.039,23.639,8.069,23.197,9.128,23.197z
			 M14.324,19.492c-2.846,0-5.161-2.316-5.161-5.162s2.315-5.16,5.161-5.16c2.847,0,5.162,2.314,5.162,5.16
			S17.171,19.492,14.324,19.492z M14.324,10.438c-2.146,0-3.892,1.746-3.892,3.892c0,2.146,1.745,3.893,3.892,3.893
			s3.894-1.746,3.894-3.893C18.218,12.185,16.471,10.438,14.324,10.438z"/>
	</g>
</g>
</svg>
