<?xml version="1.0" encoding="utf-8"?>
<!-- Generator: Adobe Illustrator 16.0.0, SVG Export Plug-In . SVG Version: 6.00 Build 0)  -->
<!DOCTYPE svg PUBLIC "-//W3C//DTD SVG 1.1 Basic//EN" "http://www.w3.org/Graphics/SVG/1.1/DTD/svg11-basic.dtd">
<svg version="1.1" baseProfile="basic" id="Layer_1"
	 xmlns="http://www.w3.org/2000/svg" xmlns:xlink="http://www.w3.org/1999/xlink" x="0px" y="0px" width="30.654px"
	 height="30.539px" viewBox="0 0 30.654 30.539" xml:space="preserve">
<g>
	<path fill="#929494" d="M28.484,30.02H1.65C0.74,30.02,0,29.23,0,28.26V1.673C0,0.75,0.729,0,1.626,0h12.875
		c1.045,0,1.393,0.922,1.58,1.429l1.246,2.957h11.157c0.909,0,1.649,0.791,1.649,1.76V28.26C30.133,29.23,29.392,30.02,28.484,30.02
		z"/>
	<polygon fill="#F1F1F1" points="12.277,8.803 9.403,8.803 10.839,6.313 9.596,5.595 8.158,8.085 6.721,5.595 5.477,6.313 
		6.914,8.803 4.04,8.803 4.04,10.24 6.914,10.24 5.477,12.729 6.721,13.447 8.158,10.957 9.596,13.447 10.839,12.729 9.403,10.24 
		12.277,10.24 	"/>
</g>
</svg>
