<?xml version="1.0" encoding="utf-8"?>
<!-- Generator: Adobe Illustrator 22.1.0, SVG Export Plug-In . SVG Version: 6.00 Build 0)  -->
<svg version="1.1" id="Layer_1" xmlns="http://www.w3.org/2000/svg" xmlns:xlink="http://www.w3.org/1999/xlink" x="0px" y="0px"
	 viewBox="0 0 640 512" enable-background="new 0 0 640 512" xml:space="preserve">
<path fill="#606060" d="M638.26,15.53L628.3,3.02c-2.75-3.45-7.78-4.03-11.24-1.28L372.91,194.67l-45.44-57.08
	c-4.98-6.25-14.56-5.98-19.18,0.53l-48.62,68.59c-28.53,0.32-107.2,4.97-158.01,45.37C38.78,302.06,0,511.39,0,511.39
	c15.38,0.67,215.11,6.82,275.65-41.3c50.93-40.48,73.32-116.22,79.99-143.78l77.47-31.27c7.44-3,9.89-12.32,4.9-18.6l-45.17-56.75
	L636.98,26.76c3.454-2.742,4.031-7.765,1.289-11.219C638.266,15.538,638.263,15.534,638.26,15.53z M255.73,445.62
	c-26.7,21.22-109.44,34.4-215.93,34.4h-0.6c4.06-17.75,8.96-36.82,14.4-55.92l68.79-54.68c4.96-3.94,1.22-11.88-4.97-10.57
	l-45.98,9.71c15.01-41.64,32.34-77.31,50.15-91.46c33.6-26.71,89.69-37.24,133.9-38.38l67.77,85.13
	C316.07,351.39,296.09,413.54,255.73,445.62L255.73,445.62z M342.83,296.75l-56.94-71.53l28.4-40.47c2.3-3.28,7.11-3.43,9.61-0.29
	l67.61,84.93c2.52,3.16,1.25,7.85-2.51,9.33L342.83,296.75L342.83,296.75z"/>
</svg>
