<svg xmlns="http://www.w3.org/2000/svg" width="4464.57" height="4464.57" viewBox="0 0 4464.57 4464.57"><path fill="#616161" d="M4449.432 474.963l-69.479-87.27c-19.184-24.066-54.271-28.112-78.409-8.93L2598.38 1724.624l-316.985-398.185c-34.738-43.6-101.567-41.717-133.797 3.696l-339.168 478.478c-199.021 2.231-747.814 34.67-1102.261 316.496C267.525 2473.766-3 3934.027-3 3934.027c107.289 4.674 1500.584 47.576 1922.904-288.104 355.281-282.385 511.473-810.738 558.002-1002.994l540.422-218.137c51.9-20.928 68.992-85.941 34.182-129.75l-315.101-395.883L4440.503 553.302c24.095-19.128 28.12-54.168 8.992-78.263-.02-.02-.042-.049-.063-.076zM1780.943 3475.225c-186.256 148.027-763.44 239.971-1506.303 239.971h-4.186c28.322-123.822 62.504-256.854 100.453-390.092l479.871-381.441c34.601-27.484 8.511-82.873-34.671-73.734l-320.752 67.734c104.709-290.476 225.602-539.306 349.843-638.015 234.389-186.326 625.667-259.782 934.071-267.735l472.756 593.858c-50.155 192.116-189.534 625.667-471.082 849.454zm607.602-1038.502l-397.207-498.984 198.115-282.314c16.044-22.881 49.598-23.926 67.038-2.021l471.64 592.462c17.579 22.044 8.72 54.761-17.51 65.085l-322.076 125.772z"/></svg>