<?xml version="1.0" encoding="utf-8"?>
<!-- Generator: Adobe Illustrator 22.1.0, SVG Export Plug-In . SVG Version: 6.00 Build 0)  -->
<svg version="1.1" id="Layer_1" xmlns="http://www.w3.org/2000/svg" xmlns:xlink="http://www.w3.org/1999/xlink" x="0px" y="0px"
	 viewBox="0 0 442.072 448.012" enable-background="new 0 0 442.072 448.012" xml:space="preserve">
<path fill="#606060" d="M264.471,32c11.362,0,20.573,9.211,20.573,20.572v171.437h116.979c7.125,0,10.695,8.612,5.66,13.653
	L235.6,409.965c-8.036,8.046-21.076,8.047-29.112,0L34.404,237.662c-5.035-5.041-1.464-13.653,5.66-13.653h116.98V52.572
	c0-11.361,9.211-20.572,20.573-20.572H264.471 M264.471,0h-86.855c-28.988,0-52.572,23.584-52.572,52.572v139.437H40.065
	c-35.507,0-53.497,43.04-28.302,68.266l172.083,172.303c20.55,20.576,53.842,20.58,74.396,0l172.083-172.303
	c25.091-25.122,7.351-68.266-28.302-68.266h-84.979V52.572C317.044,23.584,293.46,0,264.471,0z"/>
</svg>
