<svg baseProfile="basic" xmlns="http://www.w3.org/2000/svg" width="32.5" height="32.5" viewBox="-2.5 -2.5 32.5 32.5"><g fill="#FFF"><path d="M16.568 23.424h-5.639a.793.793 0 0 0 0 1.583h5.639a.793.793 0 0 0 0-1.583zM13.749 29.933c-.87 0-1.643-.544-1.96-1.329a2.48 2.48 0 0 1-1.878-2.403v-.644h7.672v.643c0 1.15-.79 2.128-1.872 2.402a2.102 2.102 0 0 1-1.962 1.331zm-2.364-3.089c.204.313.549.527.947.551l.521.028.076.517a.836.836 0 0 0 .819.707.83.83 0 0 0 .82-.707l.076-.516.52-.029c.398-.023.743-.238.944-.551h-4.723zM13.749 2.073c.583 0 1.057-.473 1.057-1.055v-2.454a1.055 1.055 0 0 0-2.11 0v2.454c0 .582.472 1.055 1.053 1.055zM6.829 3.609c.21.284.53.437.856.437a1.054 1.054 0 0 0 .852-1.676L7.095.385a1.051 1.051 0 0 0-1.47-.232c-.471.34-.577 1-.235 1.471l1.439 1.985zM20.667 19.061a1.055 1.055 0 1 0-1.706 1.243l1.443 1.982c.206.284.525.434.853.434a1.053 1.053 0 0 0 .852-1.673l-1.442-1.986zM4.266 7.144l-2.333-.759a1.055 1.055 0 0 0-1.331.677c-.182.555.121 1.15.675 1.329l2.335.761a1.056 1.056 0 0 0 1.328-.679 1.058 1.058 0 0 0-.674-1.329zM26.221 14.28l-2.331-.758a1.054 1.054 0 1 0-.654 2.005l2.334.756a1.054 1.054 0 0 0 .651-2.003zM3.613 13.522l-2.335.756a1.054 1.054 0 1 0 .652 2.004l2.333-.756a1.054 1.054 0 0 0-.65-2.004zM23.562 9.201c.108 0 .219-.016.328-.049l2.331-.758a1.06 1.06 0 0 0 .678-1.331 1.058 1.058 0 0 0-1.329-.676l-2.334.757a1.057 1.057 0 0 0-.675 1.33c.143.443.556.727 1.001.727zM6.831 19.061l-1.444 1.982a1.06 1.06 0 0 0 .236 1.477c.185.134.402.199.617.199.325 0 .648-.149.853-.433l1.443-1.982a1.053 1.053 0 0 0-.231-1.472 1.052 1.052 0 0 0-1.474.229zM20.402.385L18.961 2.37a1.057 1.057 0 0 0 .853 1.676c.325 0 .647-.153.854-.437l1.44-1.985a1.052 1.052 0 0 0-.234-1.47 1.05 1.05 0 0 0-1.472.231z"/><path d="M17.861 22.859H9.592v-2.996a31.873 31.873 0 0 0-2.334-3.395 8.153 8.153 0 0 1-1.768-5.095c0-4.553 3.704-8.256 8.257-8.256 4.556 0 8.26 3.704 8.26 8.256a8.13 8.13 0 0 1-1.771 5.095c-.746.946-1.627 2.23-2.376 3.463v2.928zm-6.983-1.285h5.699v-1.999l.091-.154c.798-1.323 1.754-2.722 2.562-3.745a6.904 6.904 0 0 0 1.493-4.302c0-3.845-3.129-6.972-6.975-6.972s-6.973 3.126-6.973 6.972a6.9 6.9 0 0 0 1.49 4.3 32.896 32.896 0 0 1 2.522 3.688l.09.15v2.062z"/></g><path fill="none" d="M-2.5-2.5H30V30H-2.5z"/></svg>