<?xml version="1.0" encoding="utf-8"?>
<!-- Generator: Adobe Illustrator 22.1.0, SVG Export Plug-In . SVG Version: 6.00 Build 0)  -->
<svg version="1.1" id="Layer_1" xmlns="http://www.w3.org/2000/svg" xmlns:xlink="http://www.w3.org/1999/xlink" x="0px" y="0px"
	 viewBox="0 0 25.3 28.9" style="enable-background:new 0 0 25.3 28.9;" xml:space="preserve">
<style type="text/css">
	.st0{fill:#FFFFFF;}
</style>
<path class="st0" d="M3.9,17.3c-0.1,0.1-0.2,0.2-0.1,0.3c0,0,0,0,0,0l0.2,0.4c0.1,0.1,0.2,0.2,0.3,0.1c0,0,0,0,0,0l3-1.7
	c-0.2-0.3-0.4-0.5-0.5-0.8L3.9,17.3z M6.1,12.5H2.9c-0.1,0-0.2,0.1-0.2,0.2v0.5c0,0.1,0.1,0.2,0.2,0.2h3.2
	C6.1,13.1,6.1,12.8,6.1,12.5z M3.9,8.6l2.6,1.5C6.7,9.8,6.8,9.5,7,9.3L4.4,7.8c-0.1-0.1-0.3,0-0.3,0.1c0,0,0,0,0,0L3.8,8.3
	C3.8,8.4,3.8,8.6,3.9,8.6z M20.9,8.6C21,8.6,21,8.4,21,8.3c0,0,0,0,0,0l-0.2-0.4c-0.1-0.1-0.2-0.2-0.3-0.1c0,0,0,0,0,0l-2.5,1.5
	c0.2,0.3,0.3,0.6,0.4,0.9L20.9,8.6z M21.9,12.5h-3.2c0,0.3,0,0.7-0.1,1h3.3c0.1,0,0.2-0.1,0.2-0.2v-0.5
	C22.2,12.6,22.1,12.5,21.9,12.5z M20.9,17.3l-3-1.7c-0.2,0.3-0.3,0.5-0.6,0.8l3,1.8c0.1,0.1,0.3,0,0.3-0.1l0.2-0.4
	C21,17.5,21,17.4,20.9,17.3z M12.4,9.1c-1.9,0-3.4,1.5-3.4,3.4C9,12.7,9.2,13,9.5,13c0.3,0,0.5-0.2,0.5-0.5c0-1.3,1.1-2.4,2.4-2.4
	c0.3,0,0.5-0.2,0.5-0.5C12.9,9.3,12.7,9.1,12.4,9.1z M12.4,7.1C9.3,7.1,7,9.7,7,12.5c0,1.3,0.5,2.6,1.3,3.5c0.8,0.9,1.5,2.3,1.6,2.8
	l0,2.3c0,0.1,0,0.2,0.1,0.3l0.7,1.1c0.1,0.1,0.2,0.2,0.4,0.2h2.4c0.2,0,0.3-0.1,0.4-0.2l0.7-1.1c0.1-0.1,0.1-0.2,0.1-0.3l0-2.3
	c0.1-0.5,0.8-1.9,1.6-2.8c0.8-0.9,1.3-2.2,1.3-3.5C17.8,9.5,15.4,7.1,12.4,7.1z M13.9,21l-0.5,0.8h-1.9L11,21l0-0.2h2.9V21z
	 M13.9,19.8h-2.9l0-1h2.9L13.9,19.8z M15.7,15.4c-0.4,0.5-1.1,1.5-1.5,2.5h-3.5c-0.4-1-1.1-2-1.5-2.5C8.4,14.6,8,13.5,8,12.5
	c0-2.3,1.8-4.4,4.4-4.4c2.4,0,4.4,2,4.4,4.4C16.8,13.5,16.4,14.6,15.7,15.4z"/>
</svg>
