<svg baseProfile="basic" xmlns="http://www.w3.org/2000/svg" width="24.75" height="24.75" viewBox="0 0 24.75 24.75"><path fill="#FFF" d="M18.302 21.644H2.481a2.01 2.01 0 0 1-.711-.129C.801 21.333.034 20.403.034 19.327V5.117A2.12 2.12 0 0 1 2.151 3h5.871c.764 0 1.511.31 2.049.848.539.54.848 1.286.848 2.048v.247h7.962a2.258 2.258 0 0 1 2.256 2.255v.456h1.731c.604 0 1.172.296 1.517.793.346.496.426 1.13.215 1.697l-2.951 7.968a3.576 3.576 0 0 1-2.42 2.197.858.858 0 0 1-.348.072 2.437 2.437 0 0 1-.579.063zM1.366 19.999c.166.228.414.394.706.449.189.063.301.084.41.084h15.82c.158 0 .312-.021.466-.052l.114-.009c.811-.228 1.447-.796 1.725-1.545l2.951-7.968a.733.733 0 0 0-.084-.676h-.001a.734.734 0 0 0-.604-.316H5.588a.74.74 0 0 0-.694.483l-3.528 9.55zm.785-15.888c-.554 0-1.005.452-1.005 1.006v12.271l2.704-7.322a1.855 1.855 0 0 1 1.738-1.211l14.437-.018v-.439c0-.63-.512-1.144-1.143-1.144H9.808V5.896a1.8 1.8 0 0 0-.523-1.263 1.8 1.8 0 0 0-1.263-.522H2.151z"/></svg>