<?xml version="1.0" encoding="utf-8"?>
<!-- Generator: Adobe Illustrator 16.0.0, SVG Export Plug-In . SVG Version: 6.00 Build 0)  -->
<!DOCTYPE svg PUBLIC "-//W3C//DTD SVG 1.1 Basic//EN" "http://www.w3.org/Graphics/SVG/1.1/DTD/svg11-basic.dtd">
<svg version="1.1" baseProfile="basic" id="Layer_1"
	 xmlns="http://www.w3.org/2000/svg" xmlns:xlink="http://www.w3.org/1999/xlink" x="0px" y="0px" width="24.75px" height="24.75px"
	 viewBox="0 0 24.75 24.75" xml:space="preserve">
<g>
	<path fill="#FFFFFF" d="M18.302,21.644H2.481c-0.244,0-0.482-0.043-0.711-0.129c-0.969-0.182-1.736-1.112-1.736-2.188V5.117
		C0.034,3.95,0.984,3,2.151,3h5.871c0.764,0,1.511,0.31,2.049,0.848c0.539,0.54,0.848,1.286,0.848,2.048v0.247h7.962
		c1.244,0,2.256,1.011,2.256,2.255v0.456h1.731c0.604,0,1.172,0.296,1.517,0.793l0,0c0.346,0.496,0.426,1.13,0.215,1.697
		l-2.951,7.968c-0.398,1.074-1.301,1.892-2.42,2.197c-0.111,0.049-0.229,0.072-0.348,0.072
		C18.755,21.616,18.53,21.644,18.302,21.644z M1.366,19.999c0.166,0.228,0.414,0.394,0.706,0.449
		c0.189,0.063,0.301,0.084,0.41,0.084h15.82c0.158,0,0.312-0.021,0.466-0.052l0.114-0.009c0.811-0.228,1.447-0.796,1.725-1.545
		l2.951-7.968c0.085-0.227,0.053-0.479-0.084-0.676l-0.001,0c-0.137-0.198-0.363-0.316-0.604-0.316H5.588
		c-0.31,0-0.588,0.194-0.694,0.483L1.366,19.999z M2.151,4.111c-0.554,0-1.005,0.452-1.005,1.006v12.271l2.704-7.322
		c0.265-0.724,0.963-1.211,1.738-1.211l14.437-0.018V8.398c0-0.63-0.512-1.144-1.143-1.144H9.808V5.896
		c0-0.469-0.19-0.929-0.523-1.263C8.954,4.302,8.493,4.111,8.022,4.111H2.151z"/>
</g>
</svg>
