<?xml version="1.0" encoding="utf-8"?>
<!-- Generator: Adobe Illustrator 16.0.0, SVG Export Plug-In . SVG Version: 6.00 Build 0)  -->
<!DOCTYPE svg PUBLIC "-//W3C//DTD SVG 1.1//EN" "http://www.w3.org/Graphics/SVG/1.1/DTD/svg11.dtd">
<svg version="1.1" id="Layer_1" xmlns="http://www.w3.org/2000/svg" xmlns:xlink="http://www.w3.org/1999/xlink" x="0px" y="0px"
	 width="27.116px" height="27.118px" viewBox="272.135 148.797 27.116 27.118"
	 enable-background="new 272.135 148.797 27.116 27.118" xml:space="preserve">
<path fill="#FFFFFF" d="M296.709,149.026l-23.727,13.686c-1.218,0.704-1.096,2.5,0.201,3.035l7.425,3.072v5.402
	c0,1.6,2.002,2.293,3.003,1.075l3.215-3.909l6.694,2.765c1.012,0.418,2.156-0.222,2.32-1.308l3.389-22.091
	C299.448,149.338,297.927,148.322,296.709,149.026z M282.303,174.22v-4.703l2.887,1.191L282.303,174.22z M294.167,172.584
	l-10.921-4.513l10.566-12.488c0.254-0.297-0.154-0.699-0.45-0.445l-13.521,11.524l-6.011-2.479l23.728-13.691L294.167,172.584z"/>
</svg>
