<svg xmlns="http://www.w3.org/2000/svg" width="4464.57" height="4464.57" viewBox="0 0 4464.57 4464.57"><path fill="#01BEA4" d="M3783.179 854.344l-731.42-731.423C2973.296 44.46 2866.94 0 2756.225 0h-1779.3C745.903.872 558.471 188.305 558.471 419.325v3626.599c0 231.021 187.432 418.454 418.454 418.454h2510.722c231.021 0 418.454-187.433 418.454-418.454V1150.747c0-110.715-44.461-217.944-122.922-296.403zm-197.022 197.893c18.308 18.307 30.512 40.103 36.614 64.511h-832.548V284.2c24.409 6.103 46.204 18.308 64.512 36.615l731.422 731.422zm-98.511 3133.171H976.924c-76.717 0-139.485-62.768-139.485-139.484V419.325c0-76.716 62.768-139.483 139.485-139.483h1534.33v906.649c0 115.945 93.281 209.227 209.229 209.227h906.648v2650.205c0 76.718-62.768 139.485-139.485 139.485z"/></svg>