<?xml version="1.0" encoding="utf-8"?>
<!-- Generator: Adobe Illustrator 22.1.0, SVG Export Plug-In . SVG Version: 6.00 Build 0)  -->
<svg version="1.1" id="Layer_1" xmlns="http://www.w3.org/2000/svg" xmlns:xlink="http://www.w3.org/1999/xlink" x="0px" y="0px"
	 viewBox="0 0 25.3 28.9" style="enable-background:new 0 0 25.3 28.9;" xml:space="preserve">
<style type="text/css">
	.st0{fill:#FFFFFF;}
</style>
<path class="st0" d="M20.1,12.8h-1.4v-1.4c0-0.8-0.6-1.4-1.4-1.4h-4.5L11,8.2H6.5c-0.8,0-1.4,0.6-1.4,1.4v8.2c0,0.8,0.6,1.4,1.4,1.4
	h10.9c0.8,0,1.5-0.4,1.9-1.1l1.9-3.2C21.8,13.9,21.2,12.8,20.1,12.8z M6.5,9.1h4.2l1.8,1.8h4.9c0.3,0,0.5,0.2,0.5,0.5v1.4H10
	c-0.8,0-1.5,0.4-1.9,1.1l-2,3.3V9.6C6,9.3,6.2,9.1,6.5,9.1z M20.5,14.4l-1.9,3.2c-0.2,0.4-0.7,0.7-1.2,0.7h-11l2.3-3.9
	c0.2-0.4,0.7-0.7,1.2-0.7h10.2C20.5,13.7,20.7,14.1,20.5,14.4L20.5,14.4z"/>
</svg>
