<?xml version="1.0" encoding="utf-8"?>
<!-- Generator: Adobe Illustrator 22.1.0, SVG Export Plug-In . SVG Version: 6.00 Build 0)  -->
<svg version="1.1" id="Layer_1" xmlns="http://www.w3.org/2000/svg" xmlns:xlink="http://www.w3.org/1999/xlink" x="0px" y="0px"
	 viewBox="0 0 30.7 30.5" style="enable-background:new 0 0 30.7 30.5;" xml:space="preserve">
<style type="text/css">
	.st0{fill:#F1F1F1;}
	.st1{fill:#929494;}
</style>
<path class="st0" d="M27.8,30H2.9c-1.2,0-2.1-0.9-2.1-2.1V2.9c0-1.2,0.9-2.1,2.1-2.1h24.9C29,0.8,30,1.7,30,2.9v24.9
	C30,29,29,30,27.8,30z"/>
<path class="st1" d="M25.7,7.8h-8.9v-1c0-0.4-0.3-0.7-0.7-0.7h-1.4C14.3,6,14,6.4,14,6.7v1H5.1c-0.4,0-0.7,0.3-0.7,0.7v0.7
	c0,0.4,0.3,0.7,0.7,0.7H14v1c0,0.4,0.3,0.7,0.7,0.7h1.4c0.4,0,0.7-0.3,0.7-0.7v-1h8.9c0.4,0,0.7-0.3,0.7-0.7V8.4
	C26.4,8.1,26.1,7.8,25.7,7.8z M25.7,21.5H11.3v-1c0-0.4-0.3-0.7-0.7-0.7H9.2c-0.4,0-0.7,0.3-0.7,0.7v1H5.1c-0.4,0-0.7,0.3-0.7,0.7
	v0.7c0,0.4,0.3,0.7,0.7,0.7h3.4v1c0,0.4,0.3,0.7,0.7,0.7h1.4c0.4,0,0.7-0.3,0.7-0.7v-1h14.4c0.4,0,0.7-0.3,0.7-0.7v-0.7
	C26.4,21.8,26.1,21.5,25.7,21.5z M25.7,14.6h-3.4v-1c0-0.4-0.3-0.7-0.7-0.7h-1.4c-0.4,0-0.7,0.3-0.7,0.7v1H5.1
	c-0.4,0-0.7,0.3-0.7,0.7V16c0,0.4,0.3,0.7,0.7,0.7h14.4v1c0,0.4,0.3,0.7,0.7,0.7h1.4c0.4,0,0.7-0.3,0.7-0.7v-1h3.4
	c0.4,0,0.7-0.3,0.7-0.7v-0.7C26.4,14.9,26.1,14.6,25.7,14.6z"/>
</svg>
