<?xml version="1.0" encoding="utf-8"?>
<!-- Generator: Adobe Illustrator 22.1.0, SVG Export Plug-In . SVG Version: 6.00 Build 0)  -->
<svg version="1.1" id="Layer_1" xmlns="http://www.w3.org/2000/svg" xmlns:xlink="http://www.w3.org/1999/xlink" x="0px" y="0px"
	 viewBox="0 0 25.3 28.9" style="enable-background:new 0 0 25.3 28.9;" xml:space="preserve">
<style type="text/css">
	.st0{fill:#FFFFFF;}
</style>
<path class="st0" d="M17,11.4h-5.7c-0.2,0-0.4-0.2-0.4-0.4v-0.3c0-0.2,0.2-0.4,0.4-0.4H17c0.2,0,0.4,0.2,0.4,0.4V11
	C17.4,11.2,17.2,11.4,17,11.4z M17.4,13.1v-0.3c0-0.2-0.2-0.4-0.4-0.4h-5.7c-0.2,0-0.4,0.2-0.4,0.4v0.3c0,0.2,0.2,0.4,0.4,0.4H17
	C17.2,13.5,17.4,13.4,17.4,13.1z M19.6,22.2h0.1c0.2,0,0.4,0.2,0.4,0.4v0.3c0,0.2-0.2,0.4-0.4,0.4h-12C6.2,23.2,5,22,5,20.5V8.7
	C5,7.2,6.2,6,7.7,6h11.6c0.4,0,0.8,0.4,0.8,0.8v12.4c0,0.3-0.2,0.6-0.5,0.7C19.5,20.5,19.4,21.5,19.6,22.2z M9.3,18.9H19V7.1H9.3
	V18.9z M6.1,19.5c0.5-0.3,1-0.5,1.6-0.5h0.5V7.1H7.7c-0.9,0-1.6,0.7-1.6,1.6V19.5z M18.6,22.2c-0.1-0.7-0.1-1.5,0-2.2H7.7
	c-2.2,0-2.2,2.2,0,2.2H18.6z"/>
</svg>
