<svg xmlns="http://www.w3.org/2000/svg" width="28.508" height="28.508" viewBox="0 0 28.508 28.508"><path fill="#009688" d="M21.533 8.919h-9.364a.67.67 0 0 1-.669-.669v-.446c0-.37.3-.668.669-.669h9.364c.367 0 .67.301.67.669v.446a.672.672 0 0 1-.67.669zm.67 2.898v-.446a.672.672 0 0 0-.67-.669h-9.364a.67.67 0 0 0-.669.669v.446c0 .369.3.668.669.669h9.364c.367 0 .67-.3.67-.669zm3.608 14.939h.184c.369 0 .668.3.669.669v.446a.67.67 0 0 1-.669.669H6.149a4.457 4.457 0 0 1-4.459-4.455V4.459A4.458 4.458 0 0 1 6.145 0H25.324c.74 0 1.338.596 1.338 1.338v20.514c0 .558-.346 1.037-.83 1.237-.201.895-.246 2.541-.021 3.667zM8.824 21.404h16.054V1.784H8.824v19.62zm-5.351.893a4.461 4.461 0 0 1 2.676-.893h.892V1.784h-.892A2.677 2.677 0 0 0 3.473 4.46v17.837zm20.754 4.459a12.754 12.754 0 0 1 0-3.566H6.149c-3.568 0-3.568 3.566 0 3.566h18.078z"/></svg>