<svg xmlns="http://www.w3.org/2000/svg" width="28.508" height="28.508" viewBox="0 0 28.508 28.508"><path fill="#FFF" d="M21.533 8.919h-9.364a.67.67 0 0 1-.669-.669v-.446a.67.67 0 0 1 .669-.669h9.364c.368 0 .67.301.67.669v.446a.672.672 0 0 1-.67.669zm.67 2.898v-.446a.672.672 0 0 0-.67-.669h-9.364a.67.67 0 0 0-.669.669v.446a.67.67 0 0 0 .669.669h9.364c.368 0 .67-.3.67-.669zm3.607 14.939h.184a.67.67 0 0 1 .669.669v.446a.67.67 0 0 1-.669.669H6.149a4.457 4.457 0 0 1-4.459-4.459V4.459A4.457 4.457 0 0 1 6.149 0h19.175c.741 0 1.338.596 1.338 1.338v20.513c0 .558-.346 1.037-.83 1.238-.201.896-.246 2.541-.022 3.667zM8.824 21.405h16.054V1.784H8.824v19.621zm-5.351.892a4.457 4.457 0 0 1 2.676-.892h.892V1.784h-.892A2.677 2.677 0 0 0 3.473 4.46v17.837zm20.753 4.459a12.794 12.794 0 0 1 0-3.567H6.149c-3.568 0-3.568 3.567 0 3.567h18.077z"/></svg>