<svg xmlns="http://www.w3.org/2000/svg" width="4464.57" height="4464.57" viewBox="0 0 4464.57 4464.57"><path fill="#606060" d="M4098.645 1986.669h-382.539v-382.54c0-218.593-163.944-382.54-382.539-382.54H2103.973L1612.134 729.75H382.54C163.945 729.75 0 893.698 0 1112.292v2240.592c0 218.594 163.945 382.541 382.54 382.541h2978.35c218.595 0 409.866-109.297 519.161-300.568l519.16-874.377c163.949-273.244.004-573.812-300.566-573.811zM382.54 975.67h1147.622L2022 1467.507h1338.89c81.974 0 136.622 54.648 136.622 136.621v382.54h-2158.62c-218.595 0-409.864 109.295-519.161 300.568l-546.487 901.701V1112.291c-27.325-81.973 27.323-136.621 109.296-136.621zm3825.403 1448.188l-519.16 874.377c-54.648 109.298-191.271 191.271-327.894 191.271H355.216l628.46-1065.646c54.648-109.298 191.271-191.271 327.892-191.271h2787.079c109.296-.001 163.945 109.296 109.296 191.269z"/></svg>