<?xml version="1.0" encoding="utf-8"?>
<!-- Generator: Adobe Illustrator 22.1.0, SVG Export Plug-In . SVG Version: 6.00 Build 0)  -->
<svg version="1.1" id="Layer_1" xmlns="http://www.w3.org/2000/svg" xmlns:xlink="http://www.w3.org/1999/xlink" x="0px" y="0px"
	 viewBox="0 0 25.3 28.9" style="enable-background:new 0 0 25.3 28.9;" xml:space="preserve">
<style type="text/css">
	.st0{fill:#009688;}
</style>
<path class="st0" d="M16,7.2H9.3c-0.8,0-1.4,0.6-1.4,1.4V21c0,0.8,0.6,1.4,1.4,1.4H16c0.8,0,1.4-0.6,1.4-1.4V8.6
	C17.4,7.8,16.8,7.2,16,7.2z M16.4,21c0,0.3-0.2,0.5-0.5,0.5H9.3c-0.3,0-0.5-0.2-0.5-0.5V8.6c0-0.3,0.2-0.5,0.5-0.5H16
	c0.3,0,0.5,0.2,0.5,0.5V21H16.4z M20.2,10.3v0.4c0,0.1-0.1,0.2-0.2,0.2h-0.5v0.2c0,0.1-0.1,0.2-0.2,0.2h-1.2V9.8h1.2
	c0.1,0,0.2,0.1,0.2,0.2v0.2H20C20.2,10.2,20.2,10.2,20.2,10.3z M20.2,13.2v0.4c0,0.1-0.1,0.2-0.2,0.2h-0.5V14c0,0.1-0.1,0.2-0.2,0.2
	h-1.2v-1.4h1.2c0.1,0,0.2,0.1,0.2,0.2v0H20C20.2,13,20.2,13.1,20.2,13.2z M20.2,16.1v0.4c0,0.1-0.1,0.2-0.2,0.2h-0.5v0.2
	c0,0.1-0.1,0.2-0.2,0.2h-1.2v-1.4h1.2c0.1,0,0.2,0.1,0.2,0.2v0.2H20C20.2,15.9,20.2,16,20.2,16.1z M20.2,18.9v0.4
	c0,0.1-0.1,0.2-0.2,0.2h-0.5v0.2c0,0.1-0.1,0.2-0.2,0.2h-1.2v-1.4h1.2c0.1,0,0.2,0.1,0.2,0.2v0.2H20C20.2,18.7,20.2,18.8,20.2,18.9z
	 M5.9,18.4h1.2v1.4H5.9c-0.1,0-0.2-0.1-0.2-0.2v-0.2H5.2c-0.1,0-0.2-0.1-0.2-0.2v-0.4c0-0.1,0.1-0.2,0.2-0.2h0.5v-0.2
	C5.7,18.5,5.8,18.4,5.9,18.4z M5.9,15.5h1.2V17H5.9c-0.1,0-0.2-0.1-0.2-0.2v-0.2H5.2c-0.1,0-0.2-0.1-0.2-0.2V16
	c0-0.1,0.1-0.2,0.2-0.2h0.5v-0.2C5.7,15.6,5.8,15.5,5.9,15.5z M5.9,12.7h1.2v1.4H5.9c-0.1,0-0.2-0.1-0.2-0.2v-0.2H5.2
	c-0.1,0-0.2-0.1-0.2-0.2v-0.4c0,0,0.1-0.1,0.2-0.1h0.5v-0.2C5.7,12.7,5.8,12.7,5.9,12.7z M5.9,9.8h1.2v1.4H5.9
	c-0.1,0-0.2-0.1-0.2-0.2v-0.2H5.2c-0.1,0-0.2-0.1-0.2-0.2v-0.4C5,10.1,5.1,10,5.2,10h0.5v0C5.7,9.9,5.8,9.8,5.9,9.8z"/>
</svg>
