<svg xmlns="http://www.w3.org/2000/svg" width="4464.57" height="4464.57" viewBox="0 0 4464.57 4464.57"><path fill="#0ABEA4" d="M2861.115 3766.98h139.518c38.527 0 69.76-31.232 69.76-69.759V1325.419c0-38.526-31.232-69.759-69.76-69.759h-139.518c-38.526 0-69.759 31.232-69.759 69.759v2371.803c0 38.526 31.233 69.758 69.759 69.758zm-1395.177 0h139.518c38.527 0 69.759-31.232 69.759-69.759V1325.419c0-38.526-31.231-69.759-69.759-69.759h-139.518c-38.527 0-69.76 31.232-69.76 69.759v2371.803c0 38.526 31.232 69.758 69.76 69.758zM4116.775 558.071H3209.91l-292.988-390.65C2837.877 62.027 2713.822 0 2582.08 0h-697.59c-131.742 0-255.797 62.027-334.842 167.421l-292.988 390.65H349.795c-38.527 0-69.759 31.232-69.759 69.759v139.518c0 38.527 31.232 69.759 69.759 69.759h209.276v3208.91c0 231.163 187.39 418.554 418.554 418.554h2511.32c231.164 0 418.554-187.391 418.554-418.554V837.106h209.276c38.527 0 69.759-31.231 69.759-69.759V627.83c0-38.526-31.231-69.759-69.759-69.759zM1772.877 334.843a140.386 140.386 0 0 1 111.613-55.807h697.59a140.385 140.385 0 0 1 111.613 55.807l167.422 223.229h-1255.66l167.422-223.229zm1855.586 3711.174c0 77.058-62.46 139.518-139.518 139.518H977.625c-77.058 0-139.518-62.46-139.518-139.518V837.106h2790.355v3208.911zM2163.526 3766.98h139.518c38.526 0 69.759-31.232 69.759-69.759V1325.419c0-38.526-31.232-69.759-69.759-69.759h-139.518c-38.526 0-69.759 31.232-69.759 69.759v2371.803c.001 38.526 31.233 69.758 69.759 69.758z"/></svg>