<svg xmlns="http://www.w3.org/2000/svg" width="4464.57" height="4464.57" viewBox="0 0 4464.57 4464.57"><path fill="#616161" d="M3942.379 3767.15c0 95.918-78.479 174.397-174.396 174.397-95.92 0-174.397-78.479-174.397-174.397s78.479-174.396 174.397-174.396c95.915 0 174.396 78.478 174.396 174.396zm-732.469-174.396c-95.919 0-174.397 78.479-174.397 174.396s78.479 174.397 174.397 174.397 174.396-78.479 174.396-174.397c.001-95.918-78.478-174.396-174.396-174.396zM4465.57 3174.2v906.866c0 211.893-171.781 383.674-383.675 383.674H384.674C172.781 4464.74 1 4292.959 1 4081.066V3174.2c0-211.894 171.781-383.674 383.674-383.674h866.755l-491.801-491.8c-219.74-219.741-63.655-595.566 246.772-595.566h459.537V348.965C1465.937 156.256 1622.021.17 1814.73.17h837.107c192.709 0 348.794 156.086 348.794 348.795v1354.194h459.537c310.428 0 465.642 375.826 246.772 595.567l-491.802 491.799h866.755c211.896 0 383.677 171.784 383.677 383.675zm-2281.988 154.342c27.031 27.032 71.503 27.032 98.533 0l1226.886-1226.885c43.6-43.601 13.08-119.462-49.703-119.462h-737.7V348.965c0-38.366-31.392-69.76-69.759-69.76h-837.106c-38.367 0-69.76 31.394-69.76 69.76v1633.23H1006.4c-61.911 0-93.303 74.99-49.703 119.462l1226.885 1226.885zM4186.535 3174.2c0-57.551-47.088-104.638-104.639-104.638h-1145.79l-456.05 456.049c-136.029 136.028-357.515 136.028-493.543 0l-456.051-456.049H384.674c-57.551 0-104.638 47.086-104.638 104.638v906.866c0 57.551 47.087 104.639 104.638 104.639h3697.223c57.551 0 104.64-47.088 104.64-104.639l-.002-906.866z"/></svg>