<svg baseProfile="basic" xmlns="http://www.w3.org/2000/svg" width="29.841" height="29.84" viewBox="0 0 29.841 29.84"><path fill="#FFF" d="M14.923 29.84C6.694 29.84 0 23.148 0 14.922 0 6.694 6.694 0 14.923 0c8.226 0 14.918 6.694 14.918 14.922 0 8.226-6.692 14.918-14.918 14.918zm0-28.031c-7.231 0-13.115 5.883-13.115 13.113 0 7.228 5.883 13.108 13.115 13.108 7.228 0 13.108-5.881 13.108-13.108.001-7.231-5.88-13.113-13.108-13.113z"/><g fill="#FFF"><path d="M16.195 22.565c0 .381-.257.637-.639.637h-1.271c-.381 0-.638-.256-.638-.637v-1.271c0-.384.257-.64.638-.64h1.271c.382 0 .639.256.639.64v1.271zM17.914 16.893c-.892.767-1.527 1.277-1.719 1.977-.062.32-.318.511-.639.511h-1.271c-.381 0-.7-.318-.638-.7.257-1.849 1.59-2.868 2.675-3.758 1.147-.894 1.785-1.465 1.785-2.551a3.157 3.157 0 0 0-3.184-3.186 3.155 3.155 0 0 0-3.187 3.186v.381c.062.322-.127.639-.449.705l-1.209.38a.638.638 0 0 1-.829-.508c-.064-.321-.064-.638-.064-.958a5.712 5.712 0 0 1 5.738-5.734 5.71 5.71 0 0 1 5.732 5.734c.001 2.357-1.53 3.567-2.741 4.521z"/></g></svg>