<?xml version="1.0" encoding="utf-8"?>
<!-- Generator: Adobe Illustrator 22.1.0, SVG Export Plug-In . SVG Version: 6.00 Build 0)  -->
<svg version="1.1" id="Layer_1" xmlns="http://www.w3.org/2000/svg" xmlns:xlink="http://www.w3.org/1999/xlink" x="0px" y="0px"
	 viewBox="0 0 25.3 28.9" style="enable-background:new 0 0 25.3 28.9;" xml:space="preserve">
<style type="text/css">
	.st0{fill:#009688;}
</style>
<path class="st0" d="M12.7,16.3c-0.5,0-0.9,0.4-0.9,0.9s0.4,0.9,0.9,0.9s0.9-0.4,0.9-0.9S13.2,16.3,12.7,16.3z M12.9,15.5h-0.5
	c-0.2,0-0.4-0.2-0.4-0.4v0c0-2.2,2.4-2,2.4-3.3c0-0.6-0.5-1.2-1.8-1.2c-0.9,0-1.4,0.3-1.8,0.9c-0.1,0.2-0.3,0.2-0.5,0.1L10,11.3
	c-0.2-0.1-0.2-0.4-0.1-0.5c0.7-0.8,1.4-1.4,2.8-1.4c1.6,0,3,0.9,3,2.5c0,2.1-2.4,2-2.4,3.3v0C13.3,15.4,13.1,15.5,12.9,15.5
	L12.9,15.5z M12.7,7.1c3.6,0,6.6,3,6.6,6.6c0,3.7-3,6.6-6.6,6.6c-3.7,0-6.6-3-6.6-6.6C6.1,10,9,7.1,12.7,7.1 M12.7,6.1
	c-4.2,0-7.6,3.4-7.6,7.6c0,4.2,3.4,7.6,7.6,7.6s7.6-3.4,7.6-7.6C20.3,9.5,16.9,6.1,12.7,6.1z"/>
</svg>
