<?xml version="1.0" encoding="utf-8"?>
<!-- Generator: Adobe Illustrator 22.1.0, SVG Export Plug-In . SVG Version: 6.00 Build 0)  -->
<svg version="1.1" id="Layer_1" xmlns="http://www.w3.org/2000/svg" xmlns:xlink="http://www.w3.org/1999/xlink" x="0px" y="0px"
	 viewBox="0 0 576 512" enable-background="new 0 0 576 512" xml:space="preserve">
<path fill="#606060" d="M417.8,315.5l20-20c3.8-3.8,10.2-1.1,10.2,4.2V464c0,26.5-21.5,48-48,48H48c-26.5,0-48-21.5-48-48V112
	c0-26.5,21.5-48,48-48h292.3c5.3,0,8,6.5,4.2,10.2l-20,20c-1.1,1.1-2.7,1.8-4.2,1.8H48c-8.8,0-16,7.2-16,16v352c0,8.8,7.2,16,16,16
	h352c8.8,0,16-7.2,16-16V319.7C416,318.1,416.6,316.6,417.8,315.5z M563.7,124.3L251.2,436.8l-99.9,11.1
	c-13.4,1.5-24.7-9.8-23.2-23.2l11.1-99.9L451.7,12.3c16.4-16.4,43-16.4,59.4,0l52.6,52.6C580.1,81.3,580.1,107.9,563.7,124.3
	L563.7,124.3z M470.1,172.7L403.4,106L169.8,339.5l-8.3,75.1l75.1-8.3L470.1,172.7L470.1,172.7z M541.1,87.5l-52.6-52.6
	c-3.8-3.8-10.2-4-14.1,0L426,83.3l66.7,66.7l48.4-48.4C545,97.8,545,91.4,541.1,87.5L541.1,87.5z"/>
</svg>
