<?xml version="1.0" encoding="utf-8"?>
<!-- Generator: Adobe Illustrator 22.1.0, SVG Export Plug-In . SVG Version: 6.00 Build 0)  -->
<svg version="1.1" id="Layer_1" xmlns="http://www.w3.org/2000/svg" xmlns:xlink="http://www.w3.org/1999/xlink" x="0px" y="0px"
	 viewBox="0 0 35 35" style="enable-background:new 0 0 35 35;" xml:space="preserve">
<style type="text/css">
	.st0{fill:#00E575;}
	.st1{fill:#F1F1F1;}
</style>
<circle class="st0" cx="17.5" cy="17.5" r="17.5"/>
<path class="st1" d="M15.4,30c-1.5-0.2-2.9-0.8-4.2-1.5c-2.9-1.7-5-4.4-5.9-7.7c-0.9-3.2-0.4-6.7,1.2-9.6c1.7-2.9,4.4-5,7.7-5.9
	c2.6-0.7,5.3-0.6,7.8,0.4c0.7,0.3,1.1,1.1,0.8,1.9c-0.3,0.7-1.1,1.1-1.8,0.8c-1.9-0.7-4-0.8-6-0.3c-2.5,0.7-4.6,2.3-5.9,4.5
	c-1.3,2.2-1.6,4.9-1,7.4c0.7,2.5,2.3,4.6,4.5,5.9c2.2,1.3,4.9,1.6,7.4,1c5.2-1.4,8.3-6.8,6.9-11.9c-0.2-0.8,0.2-1.6,1-1.8
	c0.8-0.2,1.6,0.2,1.8,1c0,0,0,0.1,0,0.1c1.8,6.7-2.2,13.7-8.9,15.5C19.1,30.2,17.2,30.3,15.4,30z"/>
<path class="st1" d="M17.4,9.6l7.2-0.9L20.2,3L17.4,9.6z"/>
</svg>
