<?xml version="1.0" encoding="utf-8"?>
<!-- Generator: Adobe Illustrator 22.1.0, SVG Export Plug-In . SVG Version: 6.00 Build 0)  -->
<svg version="1.1" id="Layer_1" xmlns="http://www.w3.org/2000/svg" xmlns:xlink="http://www.w3.org/1999/xlink" x="0px" y="0px"
	 viewBox="0 0 107.9 58.6" style="enable-background:new 0 0 107.9 58.6;" xml:space="preserve">
<style type="text/css">
	.st0{fill:#F9F31C;}
	.st1{fill:#FFFFFF;}
</style>
<circle class="st0" cx="17.4" cy="41.2" r="17.4"/>
<g>
	<path class="st1" d="M17.4,53.8c-1.5,0-3-0.3-4.4-0.8c-3.2-1.2-5.7-3.5-7.1-6.6c-1.4-3.1-1.5-6.5-0.3-9.7s3.5-5.7,6.6-7.1
		c2.4-1.1,5.1-1.4,7.7-0.9c0.8,0.2,1.3,0.9,1.1,1.7c-0.2,0.8-0.9,1.3-1.7,1.1c-2-0.4-4.1-0.2-6,0.7c-2.4,1.1-4.2,3-5.1,5.5
		c-0.9,2.4-0.8,5.1,0.3,7.4c1.1,2.4,3,4.2,5.5,5.1c2.4,0.9,5.1,0.8,7.4-0.3c4.9-2.2,7-8,4.8-12.9c-0.3-0.7,0-1.6,0.7-1.9
		c0.7-0.3,1.6,0,1.9,0.7c2.9,6.3,0.1,13.8-6.2,16.7C20.9,53.5,19.2,53.8,17.4,53.8z"/>
	<g>
		<polygon class="st1" points="17.1,33.3 24.3,32.4 19.9,26.7 		"/>
	</g>
</g>
</svg>
