<svg xmlns="http://www.w3.org/2000/svg" width="34.723" height="34.723" viewBox="0 0 34.723 34.723"><circle fill="#00E575" stroke="#2E7D32" stroke-width=".204" stroke-miterlimit="10" cx="17.361" cy="17.361" r="17.361"/><path fill="#FFF" d="M28.849 12.111a1.446 1.446 0 1 0-2.633 1.203c2.231 4.881.075 10.67-4.808 12.901a9.671 9.671 0 0 1-7.446.27c-2.437-.908-4.374-2.711-5.455-5.076s-1.177-5.01-.269-7.446a9.673 9.673 0 0 1 5.075-5.455 9.652 9.652 0 0 1 4.582-.864l-.773 1.846 7.158-.917-4.372-5.741-.845 2.019a12.53 12.53 0 0 0-6.953 1.023 12.55 12.55 0 0 0-6.584 7.077 12.544 12.544 0 0 0 .349 9.66 12.544 12.544 0 0 0 7.077 6.584c1.437.537 2.929.803 4.416.803 1.788 0 3.57-.385 5.246-1.15 6.334-2.894 9.131-10.403 6.235-16.737z"/></svg>