<svg xmlns="http://www.w3.org/2000/svg" width="34.723" height="34.723" viewBox="0 0 34.723 34.723"><circle fill="#F1F1F1" cx="17.361" cy="17.361" r="17.361"/><path fill="#929494" d="M28.849 12.111a1.447 1.447 0 1 0-2.633 1.203c2.23 4.881.075 10.67-4.808 12.901a9.675 9.675 0 0 1-7.446.27 9.67 9.67 0 0 1-5.455-5.077 9.662 9.662 0 0 1-.267-7.446 9.674 9.674 0 0 1 5.074-5.455 9.68 9.68 0 0 1 4.581-.865l-.774 1.848 7.159-.918-4.373-5.74-.845 2.019a12.529 12.529 0 0 0-6.952 1.023 12.55 12.55 0 0 0-6.584 7.077 12.54 12.54 0 0 0 .349 9.66 12.547 12.547 0 0 0 7.077 6.584 12.64 12.64 0 0 0 4.416.803c1.788 0 3.57-.385 5.245-1.15 6.335-2.895 9.131-10.403 6.236-16.737z"/></svg>