<svg xmlns="http://www.w3.org/2000/svg" width="34.723" height="34.723" viewBox="0 0 34.723 34.723"><circle fill="#F9F31C" cx="17.361" cy="17.361" r="17.361"/><path fill="#F1F1F1" d="M17.367 29.998a12.64 12.64 0 0 1-4.416-.803 12.547 12.547 0 0 1-7.077-6.584 12.548 12.548 0 0 1-.349-9.66 12.555 12.555 0 0 1 6.585-7.077 12.542 12.542 0 0 1 7.739-.896 1.448 1.448 0 0 1-.573 2.838 9.665 9.665 0 0 0-5.963.691 9.674 9.674 0 0 0-5.074 5.455 9.663 9.663 0 0 0 .268 7.445 9.673 9.673 0 0 0 5.455 5.077 9.675 9.675 0 0 0 7.446-.27c4.883-2.23 7.038-8.02 4.808-12.901a1.448 1.448 0 1 1 2.633-1.203c2.896 6.334.099 13.842-6.236 16.737a12.589 12.589 0 0 1-5.246 1.151z"/><path fill="#F1F1F1" d="M17.121 9.49l7.16-.918-4.374-5.74z"/></svg>