<svg xmlns="http://www.w3.org/2000/svg" width="4464.57" height="4464.57" viewBox="0 0 4464.57 4464.57"><path fill="#616161" d="M4324.465 976.037l-835.932-835.932A478.335 478.335 0 0 0 3150.293 0H478.347C214.16 0 0 214.16 0 478.348v3507.877c0 264.186 214.16 478.346 478.347 478.346h3507.876c264.188 0 478.348-214.16 478.348-478.346V1314.277a478.357 478.357 0 0 0-140.106-338.24zM2870.08 318.898v956.693H956.693V318.898H2870.08zm1275.592 3667.327c0 87.916-71.533 159.447-159.449 159.447H478.347c-87.916 0-159.448-71.533-159.448-159.449V478.348c0-87.916 71.532-159.449 159.448-159.449h159.449v1036.418c0 132.094 107.08 239.174 239.173 239.174h2072.836c132.094 0 239.174-107.08 239.174-239.174V323.791a158.247 158.247 0 0 1 74.064 41.805l835.932 835.932a158.405 158.405 0 0 1 46.699 112.75l-.002 2671.945v.002zM2232.285 1993.111c-483.559 0-876.969 393.41-876.969 876.969 0 483.561 393.41 876.969 876.969 876.969s876.969-393.41 876.969-876.969-393.41-876.969-876.969-876.969zm0 1435.041c-307.728 0-558.071-250.346-558.071-558.072 0-307.725 250.345-558.07 558.071-558.07 307.725 0 558.07 250.346 558.07 558.07 0 307.727-250.343 558.072-558.07 558.072z"/></svg>