<svg xmlns="http://www.w3.org/2000/svg" width="4464.57" height="4464.57" viewBox="0 0 4464.57 4464.57"><path fill="#0ABEA4" d="M4325.465 976.037l-835.932-835.932A478.335 478.335 0 0 0 3151.293 0H479.347C215.16 0 1 214.16 1 478.348v3507.877c0 264.186 214.16 478.346 478.347 478.346h3507.877c264.188 0 478.347-214.16 478.347-478.346V1314.277a478.353 478.353 0 0 0-140.106-338.24zM2871.081 318.898v956.693H957.693V318.898h1913.388zm1275.591 3667.327c0 87.916-71.532 159.447-159.448 159.447H479.347c-87.916 0-159.448-71.533-159.448-159.449V478.348c0-87.916 71.532-159.449 159.448-159.449h159.449v1036.418c0 132.094 107.08 239.174 239.173 239.174h2072.837c132.093 0 239.173-107.08 239.173-239.174V323.791a158.247 158.247 0 0 1 74.064 41.805l835.932 835.932a158.405 158.405 0 0 1 46.699 112.75l-.002 2671.945v.002zM2233.285 1993.111c-483.559 0-876.969 393.41-876.969 876.969 0 483.561 393.41 876.969 876.969 876.969s876.969-393.41 876.969-876.969-393.41-876.969-876.969-876.969zm0 1435.041c-307.728 0-558.071-250.346-558.071-558.072 0-307.725 250.345-558.07 558.071-558.07s558.07 250.346 558.07 558.07c0 307.727-250.343 558.072-558.07 558.072z"/></svg>