<?xml version="1.0" encoding="utf-8"?>
<!-- Generator: Adobe Illustrator 22.1.0, SVG Export Plug-In . SVG Version: 6.00 Build 0)  -->
<svg version="1.1" id="Layer_1" xmlns="http://www.w3.org/2000/svg" xmlns:xlink="http://www.w3.org/1999/xlink" x="0px" y="0px"
	 viewBox="0 0 448 512" enable-background="new 0 0 448 512" xml:space="preserve">
<path fill="#00BEA4" d="M433.941,129.941l-83.882-83.882C341.057,37.057,328.848,32,316.118,32H48C21.49,32,0,53.49,0,80v352
	c0,26.51,21.49,48,48,48h352c26.51,0,48-21.49,48-48V163.882C448,151.152,442.943,138.943,433.941,129.941L433.941,129.941z M288,64
	v96H96V64H288z M416,432c0,8.822-7.178,16-16,16H48c-8.822,0-16-7.178-16-16V80c0-8.822,7.178-16,16-16h16v104
	c0,13.255,10.745,24,24,24h208c13.255,0,24-10.745,24-24V64.491c2.814,0.694,5.384,2.145,7.432,4.195l83.882,83.882
	c3.01,2.994,4.698,7.068,4.686,11.314V432z M224,232c-48.523,0-88,39.477-88,88s39.477,88,88,88s88-39.477,88-88
	S272.523,232,224,232z M224,376c-30.879,0-56-25.121-56-56s25.121-56,56-56s56,25.121,56,56S254.879,376,224,376z"/>
</svg>
