<?xml version="1.0" encoding="utf-8"?>
<!-- Generator: Adobe Illustrator 22.1.0, SVG Export Plug-In . SVG Version: 6.00 Build 0)  -->
<svg version="1.1" id="Layer_1" xmlns="http://www.w3.org/2000/svg" xmlns:xlink="http://www.w3.org/1999/xlink" x="0px" y="0px"
	 viewBox="0 0 30.7 30.5" style="enable-background:new 0 0 30.7 30.5;" xml:space="preserve">
<style type="text/css">
	.st0{fill:#929494;}
	.st1{fill:none;stroke:#F1F1F1;stroke-width:1.5591;stroke-miterlimit:10;}
</style>
<path class="st0" d="M27.8,30H2.9c-1.2,0-2.1-0.9-2.1-2.1V2.9c0-1.2,0.9-2.1,2.1-2.1h24.9C29,0.8,30,1.7,30,2.9v24.9
	C30,29,29,30,27.8,30z"/>
<g>
	<path class="st1" d="M2.6,9.4c2.6,0,2.6,12,5.1,12c2.6,0,2.6-12,5.1-12c2.6,0,2.6,12,5.1,12c2.6,0,2.6-12,5.1-12s2.6,12,5.1,12"/>
</g>
</svg>
