<?xml version="1.0" encoding="utf-8"?>
<!-- Generator: Adobe Illustrator 22.1.0, SVG Export Plug-In . SVG Version: 6.00 Build 0)  -->
<svg version="1.1" id="Layer_1" xmlns="http://www.w3.org/2000/svg" xmlns:xlink="http://www.w3.org/1999/xlink" x="0px" y="0px"
	 viewBox="0 0 25.3 28.9" style="enable-background:new 0 0 25.3 28.9;" xml:space="preserve">
<style type="text/css">
	.st0{fill:#009688;}
</style>
<path class="st0" d="M19.9,15.1l-1-0.6c0.1-0.6,0.1-1,0-1.6l1-0.6c0.3-0.2,0.5-0.6,0.4-0.8c-0.4-1.2-1-2.3-1.8-3.1
	c-0.3-0.3-0.6-0.3-0.9-0.1l-1,0.6c-0.4-0.3-0.8-0.6-1.4-0.7V6.8c0-0.4-0.3-0.6-0.6-0.7c-1.2-0.3-2.5-0.3-3.7,0
	c-0.4,0.1-0.6,0.4-0.6,0.7V8C9.7,8.2,9.3,8.5,8.9,8.9L7.8,8.2C7.5,8,7.1,8.1,6.9,8.3C6.1,9.2,5.4,10.2,5,11.4
	c-0.1,0.4,0.1,0.7,0.4,0.8l1,0.6c-0.1,0.6-0.1,1,0,1.6l-1,0.6c-0.3,0.2-0.5,0.6-0.4,0.8c0.4,1.2,1,2.3,1.8,3.1
	c0.3,0.3,0.6,0.3,0.9,0.1l1-0.6c0.4,0.3,0.8,0.6,1.4,0.7v1.6c0,0.4,0.3,0.6,0.6,0.7c1.2,0.3,2.5,0.3,3.7,0c0.4-0.1,0.6-0.4,0.6-0.7
	v-1.2c0.5-0.2,0.9-0.5,1.4-0.7l1,0.6c0.3,0.2,0.7,0.1,0.9-0.1c0.8-0.9,1.5-1.9,1.8-3.1C20.3,15.7,20.2,15.3,19.9,15.1L19.9,15.1z
	 M17.8,18.4l-1.5-0.8c-0.8,0.7-1.2,0.9-2.3,1.3v1.7c-0.9,0.2-1.8,0.2-2.8,0v-1.7c-1.1-0.4-1.4-0.6-2.3-1.3l-1.5,0.8
	c-0.6-0.7-1.1-1.6-1.4-2.4l1.5-0.8c-0.2-1.1-0.2-1.5,0-2.6l-1.5-0.8c0.3-0.9,0.7-1.8,1.4-2.4l1.5,0.8c0.8-0.7,1.2-0.9,2.3-1.3V7
	c0.9-0.2,1.8-0.2,2.8,0v1.8c1.1,0.4,1.4,0.6,2.3,1.3l1.5-0.8c0.6,0.7,1.1,1.6,1.4,2.4l-1.5,0.8c0.2,1.1,0.2,1.5,0,2.6l1.5,0.8
	C18.9,16.8,18.4,17.6,17.8,18.4L17.8,18.4z M12.6,10.7c-1.7,0-3,1.4-3,3s1.4,3,3,3s3-1.4,3-3S14.4,10.7,12.6,10.7z M12.6,15.8
	c-1.1,0-2-0.9-2-2s0.9-2,2-2s2,0.9,2,2S13.7,15.8,12.6,15.8z"/>
</svg>
