<svg baseProfile="basic" xmlns="http://www.w3.org/2000/svg" width="28.508" height="28.508" viewBox="0 0 28.508 28.508"><path fill="none" d="M0 0h28.508v28.508H0z"/><path fill="#009587" d="M14.287 28.508c-.55 0-1.101-.032-1.635-.095a1.393 1.393 0 0 1-1.229-1.458 2.372 2.372 0 0 0-1.447-2.325c-.844-.356-2.053-.079-2.666.601-.481.525-1.352.594-1.903.149a14.198 14.198 0 0 1-2.246-2.272 1.395 1.395 0 0 1 .149-1.881 2.387 2.387 0 0 0 .604-2.649c-.36-.878-1.221-1.468-2.14-1.468h-.002c-.725 0-1.494-.469-1.586-1.225a14.27 14.27 0 0 1 .007-3.234 1.366 1.366 0 0 1 1.389-1.229h.001c1.097 0 2.026-.566 2.393-1.443a2.374 2.374 0 0 0-.6-2.672 1.394 1.394 0 0 1-.149-1.9 14.088 14.088 0 0 1 2.296-2.27c.549-.433 1.414-.362 1.885.153.614.675 1.812.951 2.652.608a2.388 2.388 0 0 0 1.464-2.286 1.395 1.395 0 0 1 1.237-1.43 14.264 14.264 0 0 1 3.193.008 1.395 1.395 0 0 1 1.229 1.457 2.377 2.377 0 0 0 1.444 2.33c.842.349 2.056.076 2.666-.601.478-.527 1.35-.596 1.901-.154a14.143 14.143 0 0 1 2.251 2.271 1.4 1.4 0 0 1-.151 1.885 2.389 2.389 0 0 0-.603 2.648c.365.89 1.239 1.465 2.224 1.465.656 0 1.417.472 1.503 1.232a14.403 14.403 0 0 1-.006 3.229 1.384 1.384 0 0 1-1.365 1.229l-.24-.007a2.398 2.398 0 0 0-2.179 1.451 2.368 2.368 0 0 0 .604 2.67c.542.498.607 1.331.148 1.901a14.355 14.355 0 0 1-2.299 2.271 1.426 1.426 0 0 1-1.881-.152c-.619-.68-1.812-.952-2.655-.609a2.385 2.385 0 0 0-1.466 2.285 1.393 1.393 0 0 1-1.233 1.43 14.03 14.03 0 0 1-1.559.087zm-5.159-5.311c.475 0 .926.088 1.34.263a3.643 3.643 0 0 1 2.223 3.564.124.124 0 0 0 .106.129c.948.11 1.935.114 2.912.007a.118.118 0 0 0 .104-.123 3.66 3.66 0 0 1 2.252-3.504c1.337-.546 3.103-.137 4.071.925a.117.117 0 0 0 .088.036 11.807 11.807 0 0 0 2.17-2.093.124.124 0 0 0-.016-.166 3.638 3.638 0 0 1-.918-4.1 3.679 3.679 0 0 1 3.361-2.229l.182.005c.081-.011.144-.045.15-.106.112-.963.113-1.953.005-2.941a.424.424 0 0 0-.242-.103 3.653 3.653 0 0 1-3.398-2.254 3.665 3.665 0 0 1 .919-4.063.123.123 0 0 0 .014-.167 12.865 12.865 0 0 0-2.049-2.064c-.095-.025-.135-.02-.167.015-.96 1.068-2.761 1.479-4.096.92a3.65 3.65 0 0 1-2.222-3.571.124.124 0 0 0-.11-.126 13.02 13.02 0 0 0-2.907-.006.12.12 0 0 0-.108.123 3.658 3.658 0 0 1-2.252 3.505c-1.329.545-3.104.134-4.068-.927a.115.115 0 0 0-.09-.037 11.693 11.693 0 0 0-2.166 2.093.12.12 0 0 0 .013.166 3.642 3.642 0 0 1 .916 4.1c-.564 1.351-1.953 2.223-3.537 2.223-.104.032-.144.019-.156.111a13.106 13.106 0 0 0-.006 2.937.496.496 0 0 0 .263.103h.002c1.491 0 2.822.906 3.377 2.255a3.659 3.659 0 0 1-.918 4.063.122.122 0 0 0-.014.162 12.85 12.85 0 0 0 2.047 2.07c.097.029.135.021.168-.016.668-.737 1.698-1.179 2.757-1.179zm5.196-3.705c-2.846 0-5.161-2.316-5.161-5.162s2.315-5.16 5.161-5.16c2.847 0 5.162 2.314 5.162 5.16s-2.315 5.162-5.162 5.162zm0-9.054a3.896 3.896 0 0 0-3.892 3.892c0 2.146 1.745 3.893 3.892 3.893s3.894-1.746 3.894-3.893a3.898 3.898 0 0 0-3.894-3.892z"/></svg>