<svg xmlns="http://www.w3.org/2000/svg" width="34.723" height="34.723" viewBox="0 0 34.723 34.723"><circle fill="#F1F1F1" cx="17.361" cy="17.361" r="17.361"/><path fill="#929494" d="M24.135 6.694c3.533 2.241 5.882 6.188 5.882 10.68 0 6.968-5.644 12.618-12.606 12.632-6.952.014-12.646-5.654-12.656-12.611a12.633 12.633 0 0 1 5.882-10.701.612.612 0 0 1 .861.214l.601 1.063a.609.609 0 0 1-.198.81A10.189 10.189 0 0 0 7.2 17.373a10.185 10.185 0 0 0 10.187 10.188c5.627 0 10.188-4.56 10.188-10.188a10.18 10.18 0 0 0-4.703-8.587.61.61 0 0 1-.199-.81l.603-1.064a.609.609 0 0 1 .859-.218zm-5.527 11.699V4.946a.612.612 0 0 0-.61-.611h-1.223a.613.613 0 0 0-.61.611v13.446a.61.61 0 0 0 .61.611h1.223a.61.61 0 0 0 .61-.61z"/></svg>