<svg xmlns="http://www.w3.org/2000/svg" width="34.723" height="34.723" viewBox="0 0 34.723 34.723"><circle fill="#FF5E5B" cx="17.361" cy="17.361" r="17.361"/><path fill="#FFF" d="M24.135 6.694c3.533 2.241 5.882 6.188 5.882 10.68 0 6.968-5.644 12.618-12.605 12.632-6.953.014-12.647-5.654-12.657-12.611a12.633 12.633 0 0 1 5.882-10.701.611.611 0 0 1 .862.215l.601 1.063a.61.61 0 0 1-.198.81 10.187 10.187 0 0 0-4.7 8.592c-.002 5.625 4.557 10.187 10.182 10.188h.005c5.627 0 10.188-4.56 10.188-10.188a10.179 10.179 0 0 0-4.703-8.587.61.61 0 0 1-.199-.81l.603-1.064a.61.61 0 0 1 .829-.236l.028.017zm-5.527 11.699V4.946a.611.611 0 0 0-.609-.611h-1.224a.612.612 0 0 0-.609.611v13.447a.609.609 0 0 0 .608.61H17.999a.61.61 0 0 0 .609-.61z"/></svg>