<?xml version="1.0" encoding="utf-8"?>
<!-- Generator: Adobe Illustrator 22.1.0, SVG Export Plug-In . SVG Version: 6.00 Build 0)  -->
<svg version="1.1" id="Layer_1" xmlns="http://www.w3.org/2000/svg" xmlns:xlink="http://www.w3.org/1999/xlink" x="0px" y="0px"
	 viewBox="0 0 448 512" enable-background="new 0 0 448 512" xml:space="preserve">
<path fill="#606060" d="M296,432h16c4.418,0,8-3.582,8-8V152c0-4.418-3.582-8-8-8h-16c-4.418,0-8,3.582-8,8v272
	C288,428.418,291.582,432,296,432z M136,432h16c4.418,0,8-3.582,8-8V152c0-4.418-3.582-8-8-8h-16c-4.418,0-8,3.582-8,8v272
	C128,428.418,131.582,432,136,432z M440,64H336l-33.6-44.8C293.335,7.113,279.108,0,264,0h-80c-15.108,0-29.335,7.113-38.4,19.2
	L112,64H8c-4.418,0-8,3.582-8,8v16c0,4.418,3.582,8,8,8h24v368c0,26.51,21.49,48,48,48l0,0h288c26.51,0,48-21.49,48-48l0,0V96h24
	c4.418,0,8-3.582,8-8V72C448,67.582,444.418,64,440,64z M171.2,38.4c3.032-4.017,7.768-6.384,12.8-6.4h80
	c5.032,0.016,9.768,2.383,12.8,6.4L296,64H152L171.2,38.4z M384,464c0,8.837-7.163,16-16,16H80c-8.837,0-16-7.163-16-16V96h320V464z
	 M216,432h16c4.418,0,8-3.582,8-8V152c0-4.418-3.582-8-8-8h-16c-4.418,0-8,3.582-8,8v272C208,428.418,211.582,432,216,432z"/>
</svg>
