<svg xmlns="http://www.w3.org/2000/svg" width="4464.57" height="4464.57" viewBox="0 0 4464.57 4464.57"><path fill="#616161" d="M3942.379 3766.981c0 95.918-78.479 174.396-174.396 174.396-95.92 0-174.397-78.479-174.397-174.396s78.479-174.396 174.397-174.396c95.915 0 174.396 78.478 174.396 174.396zm-732.469-174.396c-95.919 0-174.397 78.479-174.397 174.396s78.479 174.396 174.397 174.396 174.396-78.479 174.396-174.396c.001-95.918-78.478-174.396-174.396-174.396zm1255.66-418.555v906.867c0 211.893-171.781 383.674-383.675 383.674H384.674C172.781 4464.571 1 4292.79 1 4080.897V3174.03c0-211.893 171.781-383.674 383.674-383.674h1081.264v-865.882H1006.4c-310.428 0-465.642-375.826-246.772-595.565L1986.514 102.023c136.029-136.03 356.643-136.03 493.543 0l1226.887 1226.886c219.74 219.74 63.654 595.565-246.772 595.565h-459.536v865.882H4081.9c211.889 0 383.67 171.784 383.67 383.674zM1744.973 1645.438v1633.231c0 38.367 31.393 69.758 69.76 69.758h837.106c38.367 0 69.759-31.391 69.759-69.758V1645.438h738.572c61.911 0 93.303-74.99 49.703-119.461L2282.988 299.092c-27.031-27.031-71.503-27.031-98.534 0L957.568 1525.977c-43.6 43.599-13.079 119.461 49.703 119.461h737.702zM4186.535 3174.03c0-57.551-47.088-104.637-104.639-104.637H3000.633v209.275c0 192.709-156.085 348.793-348.794 348.793h-837.106c-192.709 0-348.794-156.084-348.794-348.793v-209.275H384.674c-57.551 0-104.638 47.086-104.638 104.637v906.867c0 57.551 47.087 104.639 104.638 104.639h3697.223c57.551 0 104.64-47.088 104.64-104.639l-.002-906.867z"/></svg>